<mxfile host="app.diagrams.net" agent="Mozilla/5.0 (Windows NT 10.0; Win64; x64) AppleWebKit/537.36 (KHTML, like Gecko) Chrome/130.0.0.0 Safari/537.36" version="24.8.6">
  <diagram name="Page-1" id="1Xx9LxWTzYBn8LaaP7G2">
    <mxGraphModel dx="880" dy="478" grid="1" gridSize="10" guides="1" tooltips="1" connect="1" arrows="1" fold="1" page="1" pageScale="1" pageWidth="1100" pageHeight="850" math="0" shadow="0">
      <root>
        <mxCell id="0" />
        <mxCell id="1" parent="0" />
        <mxCell id="LLB44u4CaGhcdVfB1MSI-37" value="Admin Login/Logout" style="swimlane;fontStyle=1;align=center;verticalAlign=top;childLayout=stackLayout;horizontal=1;startSize=26;horizontalStack=0;resizeParent=1;resizeParentMax=0;resizeLast=0;collapsible=1;marginBottom=0;whiteSpace=wrap;html=1;" parent="1" vertex="1">
          <mxGeometry x="40" y="80" width="180" height="150" as="geometry" />
        </mxCell>
        <mxCell id="LLB44u4CaGhcdVfB1MSI-38" value="-User Name: String&lt;div&gt;-Password: String&lt;br&gt;&lt;div&gt;&lt;br&gt;&lt;/div&gt;&lt;/div&gt;" style="text;strokeColor=none;fillColor=none;align=left;verticalAlign=top;spacingLeft=4;spacingRight=4;overflow=hidden;rotatable=0;points=[[0,0.5],[1,0.5]];portConstraint=eastwest;whiteSpace=wrap;html=1;" parent="LLB44u4CaGhcdVfB1MSI-37" vertex="1">
          <mxGeometry y="26" width="180" height="54" as="geometry" />
        </mxCell>
        <mxCell id="LLB44u4CaGhcdVfB1MSI-40" value="+get_name(void): String&lt;div&gt;+get_password(&lt;span style=&quot;background-color: initial;&quot;&gt;void&lt;/span&gt;&lt;span style=&quot;background-color: initial;&quot;&gt;): String&lt;/span&gt;&lt;/div&gt;&lt;div&gt;+verification (&lt;span style=&quot;background-color: initial;&quot;&gt;void&lt;/span&gt;&lt;span style=&quot;background-color: initial;&quot;&gt;) : Boolean&lt;/span&gt;&lt;/div&gt;&lt;div&gt;+log_out (&lt;span style=&quot;background-color: initial;&quot;&gt;void&lt;/span&gt;&lt;span style=&quot;background-color: initial;&quot;&gt;) : void&lt;/span&gt;&lt;/div&gt;" style="text;strokeColor=none;fillColor=none;align=left;verticalAlign=top;spacingLeft=4;spacingRight=4;overflow=hidden;rotatable=0;points=[[0,0.5],[1,0.5]];portConstraint=eastwest;whiteSpace=wrap;html=1;" parent="LLB44u4CaGhcdVfB1MSI-37" vertex="1">
          <mxGeometry y="80" width="180" height="70" as="geometry" />
        </mxCell>
        <mxCell id="DlY94BfLxcScRka0jpxo-1" value="" style="endArrow=none;html=1;rounded=0;exitX=0.007;exitY=1.022;exitDx=0;exitDy=0;exitPerimeter=0;entryX=1.002;entryY=0.029;entryDx=0;entryDy=0;entryPerimeter=0;" parent="LLB44u4CaGhcdVfB1MSI-37" source="LLB44u4CaGhcdVfB1MSI-38" target="LLB44u4CaGhcdVfB1MSI-40" edge="1">
          <mxGeometry width="50" height="50" relative="1" as="geometry">
            <mxPoint x="360" y="260" as="sourcePoint" />
            <mxPoint x="410" y="210" as="targetPoint" />
          </mxGeometry>
        </mxCell>
        <mxCell id="LLB44u4CaGhcdVfB1MSI-41" value="Admin" style="swimlane;fontStyle=1;align=center;verticalAlign=top;childLayout=stackLayout;horizontal=1;startSize=26;horizontalStack=0;resizeParent=1;resizeParentMax=0;resizeLast=0;collapsible=1;marginBottom=0;whiteSpace=wrap;html=1;" parent="1" vertex="1">
          <mxGeometry x="330" y="90" width="100" height="146" as="geometry" />
        </mxCell>
        <mxCell id="LLB44u4CaGhcdVfB1MSI-42" value="-Login/Logout&lt;div&gt;-ViewBlog&lt;/div&gt;&lt;div&gt;-PostBlog&lt;/div&gt;&lt;div&gt;-EditBlog&lt;/div&gt;&lt;div&gt;-PostComment&lt;/div&gt;&lt;div&gt;-EditComment&lt;/div&gt;&lt;div&gt;-SetPrivacy&lt;/div&gt;" style="text;strokeColor=none;fillColor=none;align=left;verticalAlign=top;spacingLeft=4;spacingRight=4;overflow=hidden;rotatable=0;points=[[0,0.5],[1,0.5]];portConstraint=eastwest;whiteSpace=wrap;html=1;" parent="LLB44u4CaGhcdVfB1MSI-41" vertex="1">
          <mxGeometry y="26" width="100" height="120" as="geometry" />
        </mxCell>
        <mxCell id="LLB44u4CaGhcdVfB1MSI-45" value="Log_in" style="endArrow=open;endSize=12;dashed=1;html=1;rounded=0;exitX=0.008;exitY=0.172;exitDx=0;exitDy=0;exitPerimeter=0;entryX=0.984;entryY=0;entryDx=0;entryDy=0;entryPerimeter=0;" parent="1" source="LLB44u4CaGhcdVfB1MSI-42" target="LLB44u4CaGhcdVfB1MSI-38" edge="1">
          <mxGeometry width="160" relative="1" as="geometry">
            <mxPoint x="340" y="260" as="sourcePoint" />
            <mxPoint x="210" y="50" as="targetPoint" />
          </mxGeometry>
        </mxCell>
        <mxCell id="LLB44u4CaGhcdVfB1MSI-47" value="" style="endArrow=none;html=1;rounded=0;align=center;verticalAlign=top;endFill=0;labelBackgroundColor=none;exitX=1.002;exitY=0.705;exitDx=0;exitDy=0;exitPerimeter=0;entryX=0;entryY=0.5;entryDx=0;entryDy=0;" parent="1" source="LLB44u4CaGhcdVfB1MSI-40" target="LLB44u4CaGhcdVfB1MSI-42" edge="1">
          <mxGeometry relative="1" as="geometry">
            <mxPoint x="210" y="230" as="sourcePoint" />
            <mxPoint x="370" y="230" as="targetPoint" />
          </mxGeometry>
        </mxCell>
        <mxCell id="LLB44u4CaGhcdVfB1MSI-48" value="1..*" style="resizable=0;html=1;align=left;verticalAlign=bottom;labelBackgroundColor=none;" parent="LLB44u4CaGhcdVfB1MSI-47" connectable="0" vertex="1">
          <mxGeometry x="-1" relative="1" as="geometry">
            <mxPoint x="3" y="21" as="offset" />
          </mxGeometry>
        </mxCell>
        <mxCell id="LLB44u4CaGhcdVfB1MSI-49" value="0..1" style="resizable=0;html=1;align=left;verticalAlign=top;labelBackgroundColor=none;" parent="LLB44u4CaGhcdVfB1MSI-47" connectable="0" vertex="1">
          <mxGeometry x="-1" relative="1" as="geometry">
            <mxPoint x="83" y="-29" as="offset" />
          </mxGeometry>
        </mxCell>
        <mxCell id="LLB44u4CaGhcdVfB1MSI-51" value="BlogPost" style="swimlane;fontStyle=1;align=center;verticalAlign=top;childLayout=stackLayout;horizontal=1;startSize=26;horizontalStack=0;resizeParent=1;resizeParentMax=0;resizeLast=0;collapsible=1;marginBottom=0;whiteSpace=wrap;html=1;" parent="1" vertex="1">
          <mxGeometry x="540" y="56" width="190" height="248" as="geometry" />
        </mxCell>
        <mxCell id="LLB44u4CaGhcdVfB1MSI-54" value="&lt;p dir=&quot;ltr&quot; style=&quot;text-align: left; line-height: 50%;&quot;&gt;&lt;span style=&quot;color: rgb(0, 0, 0); font-family: lt_regular;&quot;&gt;&lt;font style=&quot;font-size: 12px;&quot;&gt;+ PostBlog : Post&lt;/font&gt;&lt;/span&gt;&lt;/p&gt;&lt;p dir=&quot;ltr&quot; style=&quot;text-align: left; line-height: 50%;&quot;&gt;&lt;span style=&quot;color: rgb(0, 0, 0); font-family: lt_regular;&quot;&gt;&lt;font style=&quot;font-size: 12px;&quot;&gt;+ EditBlog  : Edit&lt;/font&gt;&lt;/span&gt;&lt;/p&gt;&lt;p dir=&quot;ltr&quot; style=&quot;text-align: left; line-height: 50%;&quot;&gt;&lt;span style=&quot;color: rgb(0, 0, 0);&quot;&gt;&lt;font style=&quot;font-size: 12px;&quot;&gt;&lt;font face=&quot;lt_regular&quot;&gt;+ DeleteBlog (&lt;/font&gt;&lt;/font&gt;&lt;/span&gt;&lt;span style=&quot;background-color: initial;&quot;&gt;void&lt;/span&gt;&lt;span style=&quot;background-color: initial; font-family: lt_regular;&quot;&gt;)&lt;/span&gt;&lt;/p&gt;&lt;p dir=&quot;ltr&quot; style=&quot;text-align: left; line-height: 50%;&quot;&gt;&lt;span style=&quot;color: rgb(0, 0, 0); font-family: lt_regular;&quot;&gt;&lt;font style=&quot;font-size: 12px;&quot;&gt;+ SetPrivacy : Boolean&lt;/font&gt;&lt;/span&gt;&lt;/p&gt;&lt;p dir=&quot;ltr&quot; style=&quot;text-align: left; line-height: 50%;&quot;&gt;&lt;span style=&quot;color: rgb(0, 0, 0); font-family: lt_regular;&quot;&gt;&lt;font style=&quot;font-size: 12px;&quot;&gt;+ SetDate : Date&lt;/font&gt;&lt;/span&gt;&lt;/p&gt;&lt;p dir=&quot;ltr&quot; style=&quot;text-align: left; line-height: 50%;&quot;&gt;&lt;br&gt;&lt;/p&gt;" style="text;strokeColor=none;fillColor=none;align=left;verticalAlign=top;spacingLeft=4;spacingRight=4;overflow=hidden;rotatable=0;points=[[0,0.5],[1,0.5]];portConstraint=eastwest;whiteSpace=wrap;html=1;" parent="LLB44u4CaGhcdVfB1MSI-51" vertex="1">
          <mxGeometry y="26" width="190" height="112" as="geometry" />
        </mxCell>
        <mxCell id="LLB44u4CaGhcdVfB1MSI-53" value="" style="line;strokeWidth=1;fillColor=none;align=left;verticalAlign=middle;spacingTop=-1;spacingLeft=3;spacingRight=3;rotatable=0;labelPosition=right;points=[];portConstraint=eastwest;strokeColor=inherit;" parent="LLB44u4CaGhcdVfB1MSI-51" vertex="1">
          <mxGeometry y="138" width="190" height="8" as="geometry" />
        </mxCell>
        <mxCell id="LLB44u4CaGhcdVfB1MSI-52" value="-PostBlog(void) : String&lt;div style=&quot;line-height: 130%;&quot;&gt;-EditBlog(&lt;span style=&quot;background-color: initial;&quot;&gt;void&lt;/span&gt;&lt;span style=&quot;background-color: initial;&quot;&gt;) : String&lt;/span&gt;&lt;/div&gt;&lt;div style=&quot;line-height: 130%;&quot;&gt;-DeleteBlog(&lt;span style=&quot;background-color: initial;&quot;&gt;void&lt;/span&gt;&lt;span style=&quot;background-color: initial;&quot;&gt;) : Boolean&lt;/span&gt;&lt;/div&gt;&lt;div style=&quot;line-height: 130%;&quot;&gt;-SetPrivacy(&lt;span style=&quot;background-color: initial;&quot;&gt;void&lt;/span&gt;&lt;span style=&quot;background-color: initial;&quot;&gt;) : Boolean&lt;/span&gt;&lt;/div&gt;&lt;div style=&quot;line-height: 130%;&quot;&gt;-SetDate(&lt;span style=&quot;background-color: initial;&quot;&gt;void&lt;/span&gt;&lt;span style=&quot;background-color: initial;&quot;&gt;) : Date&lt;/span&gt;&lt;/div&gt;&lt;div style=&quot;line-height: 130%;&quot;&gt;-CommentEnable(&lt;span style=&quot;background-color: initial;&quot;&gt;void&lt;/span&gt;&lt;span style=&quot;background-color: initial;&quot;&gt;) : Boolean&lt;/span&gt;&lt;/div&gt;" style="text;strokeColor=none;fillColor=none;align=left;verticalAlign=top;spacingLeft=4;spacingRight=4;overflow=hidden;rotatable=0;points=[[0,0.5],[1,0.5]];portConstraint=eastwest;whiteSpace=wrap;html=1;" parent="LLB44u4CaGhcdVfB1MSI-51" vertex="1">
          <mxGeometry y="146" width="190" height="102" as="geometry" />
        </mxCell>
        <mxCell id="DlY94BfLxcScRka0jpxo-4" value="Post Blog" style="endArrow=open;endSize=12;dashed=1;html=1;rounded=0;entryX=0;entryY=0.5;entryDx=0;entryDy=0;exitX=1.021;exitY=0.417;exitDx=0;exitDy=0;exitPerimeter=0;" parent="1" source="LLB44u4CaGhcdVfB1MSI-42" target="LLB44u4CaGhcdVfB1MSI-54" edge="1">
          <mxGeometry width="160" relative="1" as="geometry">
            <mxPoint x="470" y="110" as="sourcePoint" />
            <mxPoint x="500" y="270" as="targetPoint" />
          </mxGeometry>
        </mxCell>
        <mxCell id="DlY94BfLxcScRka0jpxo-9" value="Viewer" style="swimlane;fontStyle=0;childLayout=stackLayout;horizontal=1;startSize=26;fillColor=none;horizontalStack=0;resizeParent=1;resizeParentMax=0;resizeLast=0;collapsible=1;marginBottom=0;whiteSpace=wrap;html=1;" parent="1" vertex="1">
          <mxGeometry x="80" y="310" width="110" height="120" as="geometry" />
        </mxCell>
        <mxCell id="DlY94BfLxcScRka0jpxo-10" value="&lt;font style=&quot;font-size: 12px;&quot;&gt;&lt;p style=&quot;line-height: 50%;&quot; dir=&quot;ltr&quot;&gt;&lt;span style=&quot;font-family: lt_regular;&quot;&gt;+ ViewBlog&lt;/span&gt;&lt;/p&gt;&lt;p style=&quot;line-height: 50%;&quot; dir=&quot;ltr&quot;&gt;&lt;span style=&quot;font-family: lt_regular;&quot;&gt;+ PostComment&lt;/span&gt;&lt;/p&gt;&lt;p style=&quot;line-height: 50%;&quot; dir=&quot;ltr&quot;&gt;&lt;span style=&quot;font-family: lt_regular;&quot;&gt;+ EditComment&lt;/span&gt;&lt;/p&gt;&lt;p style=&quot;line-height: 50%;&quot; dir=&quot;ltr&quot;&gt;&lt;span style=&quot;font-family: lt_regular;&quot;&gt;+ React&lt;/span&gt;&lt;/p&gt;&lt;/font&gt;" style="text;strokeColor=none;fillColor=none;align=left;verticalAlign=top;spacingLeft=4;spacingRight=4;overflow=hidden;rotatable=0;points=[[0,0.5],[1,0.5]];portConstraint=eastwest;whiteSpace=wrap;html=1;" parent="DlY94BfLxcScRka0jpxo-9" vertex="1">
          <mxGeometry y="26" width="110" height="94" as="geometry" />
        </mxCell>
        <mxCell id="DlY94BfLxcScRka0jpxo-13" value="Blog" style="swimlane;fontStyle=0;childLayout=stackLayout;horizontal=1;startSize=26;fillColor=none;horizontalStack=0;resizeParent=1;resizeParentMax=0;resizeLast=0;collapsible=1;marginBottom=0;whiteSpace=wrap;html=1;" parent="1" vertex="1">
          <mxGeometry x="280" y="310" width="100" height="180" as="geometry" />
        </mxCell>
        <mxCell id="DlY94BfLxcScRka0jpxo-42" value="" style="endArrow=block;startArrow=none;endFill=0;startFill=0;endSize=8;html=1;verticalAlign=bottom;dashed=1;labelBackgroundColor=none;rounded=0;entryX=0.002;entryY=0.359;entryDx=0;entryDy=0;entryPerimeter=0;" parent="DlY94BfLxcScRka0jpxo-13" target="DlY94BfLxcScRka0jpxo-14" edge="1">
          <mxGeometry width="160" relative="1" as="geometry">
            <mxPoint x="-90" y="89" as="sourcePoint" />
            <mxPoint x="70" y="89" as="targetPoint" />
          </mxGeometry>
        </mxCell>
        <mxCell id="DlY94BfLxcScRka0jpxo-14" value="&lt;p style=&quot;line-height: 41%;&quot; dir=&quot;ltr&quot;&gt;&lt;span style=&quot;font-family: lt_regular;&quot;&gt;&lt;font style=&quot;font-size: 12px;&quot;&gt;- View Blog&lt;/font&gt;&lt;/span&gt;&lt;/p&gt;&lt;p style=&quot;line-height: 41%;&quot; dir=&quot;ltr&quot;&gt;&lt;span style=&quot;font-family: lt_regular;&quot;&gt;&lt;font style=&quot;font-size: 12px;&quot;&gt;- Title&lt;/font&gt;&lt;/span&gt;&lt;/p&gt;&lt;p style=&quot;line-height: 41%;&quot; dir=&quot;ltr&quot;&gt;&lt;span style=&quot;font-family: lt_regular;&quot;&gt;&lt;font style=&quot;font-size: 12px;&quot;&gt;- Body&lt;/font&gt;&lt;/span&gt;&lt;/p&gt;&lt;p style=&quot;line-height: 41%;&quot; dir=&quot;ltr&quot;&gt;&lt;span style=&quot;font-family: lt_regular;&quot;&gt;&lt;font style=&quot;font-size: 12px;&quot;&gt;- Post&lt;/font&gt;&lt;/span&gt;&lt;/p&gt;&lt;p style=&quot;line-height: 41%;&quot; dir=&quot;ltr&quot;&gt;&lt;span style=&quot;font-family: lt_regular;&quot;&gt;&lt;font style=&quot;font-size: 12px;&quot;&gt;- Edit&lt;/font&gt;&lt;/span&gt;&lt;/p&gt;&lt;p style=&quot;line-height: 41%;&quot; dir=&quot;ltr&quot;&gt;&lt;span style=&quot;font-family: lt_regular;&quot;&gt;&lt;font style=&quot;font-size: 12px;&quot;&gt;- Delete &lt;/font&gt;&lt;/span&gt;&lt;/p&gt;&lt;p style=&quot;line-height: 41%;&quot; dir=&quot;ltr&quot;&gt;&lt;span style=&quot;font-family: lt_regular;&quot;&gt;&lt;font style=&quot;font-size: 12px;&quot;&gt;- Privacy Set&lt;/font&gt;&lt;/span&gt;&lt;/p&gt;&lt;p style=&quot;line-height: 41%;&quot; dir=&quot;ltr&quot;&gt;&lt;span style=&quot;font-family: lt_regular;&quot;&gt;&lt;font style=&quot;font-size: 12px;&quot;&gt;- CommentEnable&lt;/font&gt;&lt;/span&gt;&lt;/p&gt;" style="text;strokeColor=none;fillColor=none;align=left;verticalAlign=top;spacingLeft=4;spacingRight=4;overflow=hidden;rotatable=0;points=[[0,0.5],[1,0.5]];portConstraint=eastwest;whiteSpace=wrap;html=1;" parent="DlY94BfLxcScRka0jpxo-13" vertex="1">
          <mxGeometry y="26" width="100" height="154" as="geometry" />
        </mxCell>
        <mxCell id="DlY94BfLxcScRka0jpxo-17" value="Comment post" style="swimlane;fontStyle=1;align=center;verticalAlign=top;childLayout=stackLayout;horizontal=1;startSize=30;horizontalStack=0;resizeParent=1;resizeParentMax=0;resizeLast=0;collapsible=1;marginBottom=0;whiteSpace=wrap;html=1;" parent="1" vertex="1">
          <mxGeometry x="760" y="60" width="200" height="300" as="geometry" />
        </mxCell>
        <mxCell id="DlY94BfLxcScRka0jpxo-18" value="&lt;p style=&quot;line-height: 80%;&quot; dir=&quot;ltr&quot;&gt;&lt;span style=&quot;font-size: 11pt; font-family: lt_regular;&quot;&gt;- UserName: String&lt;/span&gt;&lt;/p&gt;&lt;p style=&quot;line-height: 80%;&quot; dir=&quot;ltr&quot;&gt;&lt;span style=&quot;font-size: 11pt; font-family: lt_regular;&quot;&gt;- PostComment : String&lt;/span&gt;&lt;/p&gt;&lt;p style=&quot;line-height: 80%;&quot; dir=&quot;ltr&quot;&gt;&lt;span style=&quot;font-size: 11pt; font-family: lt_regular;&quot;&gt;- EditComment : String&lt;/span&gt;&lt;/p&gt;&lt;p style=&quot;line-height: 80%;&quot; dir=&quot;ltr&quot;&gt;&lt;span style=&quot;font-size: 11pt; font-family: lt_regular;&quot;&gt;- DeleteComment: Boolean&lt;/span&gt;&lt;/p&gt;&lt;p style=&quot;line-height: 80%;&quot; dir=&quot;ltr&quot;&gt;&lt;span style=&quot;font-size: 11pt; font-family: lt_regular;&quot;&gt;- SetDate : Date&lt;/span&gt;&lt;/p&gt;" style="text;strokeColor=none;fillColor=none;align=left;verticalAlign=top;spacingLeft=4;spacingRight=4;overflow=hidden;rotatable=0;points=[[0,0.5],[1,0.5]];portConstraint=eastwest;whiteSpace=wrap;html=1;" parent="DlY94BfLxcScRka0jpxo-17" vertex="1">
          <mxGeometry y="30" width="200" height="130" as="geometry" />
        </mxCell>
        <mxCell id="DlY94BfLxcScRka0jpxo-19" value="" style="line;strokeWidth=1;fillColor=none;align=left;verticalAlign=middle;spacingTop=-1;spacingLeft=3;spacingRight=3;rotatable=0;labelPosition=right;points=[];portConstraint=eastwest;strokeColor=inherit;" parent="DlY94BfLxcScRka0jpxo-17" vertex="1">
          <mxGeometry y="160" width="200" height="8" as="geometry" />
        </mxCell>
        <mxCell id="DlY94BfLxcScRka0jpxo-20" value="&lt;p style=&quot;line-height: 100%;&quot; dir=&quot;ltr&quot;&gt;&lt;span style=&quot;font-size: 11pt; font-family: lt_regular;&quot;&gt;- UserName(&lt;/span&gt;void&lt;span style=&quot;font-size: 11pt; font-family: lt_regular;&quot;&gt;): String&lt;/span&gt;&lt;/p&gt;&lt;p style=&quot;line-height: 100%;&quot; dir=&quot;ltr&quot;&gt;&lt;span style=&quot;font-size: 11pt; font-family: lt_regular;&quot;&gt;+ PostComment(&lt;/span&gt;void&lt;span style=&quot;font-size: 11pt; font-family: lt_regular;&quot;&gt;) :String&lt;/span&gt;&lt;/p&gt;&lt;p style=&quot;line-height: 100%;&quot; dir=&quot;ltr&quot;&gt;&lt;span style=&quot;font-size: 11pt; font-family: lt_regular;&quot;&gt;+ EditComment(&lt;/span&gt;&lt;span style=&quot;background-color: initial;&quot;&gt;void&lt;/span&gt;&lt;span style=&quot;font-family: lt_regular; font-size: 11pt; background-color: initial;&quot;&gt;) : String&lt;/span&gt;&lt;/p&gt;&lt;p style=&quot;line-height: 100%;&quot; dir=&quot;ltr&quot;&gt;&lt;span style=&quot;font-size: 11pt; font-family: lt_regular;&quot;&gt;+ DeleteComment (&lt;/span&gt;&lt;span style=&quot;background-color: initial;&quot;&gt;void&lt;/span&gt;&lt;span style=&quot;font-family: lt_regular; font-size: 11pt; background-color: initial;&quot;&gt;) : Void&lt;/span&gt;&lt;/p&gt;&lt;p style=&quot;line-height: 100%;&quot; dir=&quot;ltr&quot;&gt;&lt;span style=&quot;font-size: 11pt; font-family: lt_regular;&quot;&gt;+ SetDate(&lt;/span&gt;&lt;span style=&quot;background-color: initial;&quot;&gt;void&lt;/span&gt;&lt;span style=&quot;font-family: lt_regular; font-size: 11pt; background-color: initial;&quot;&gt;): Date&lt;/span&gt;&lt;/p&gt;" style="text;strokeColor=none;fillColor=none;align=left;verticalAlign=top;spacingLeft=4;spacingRight=4;overflow=hidden;rotatable=0;points=[[0,0.5],[1,0.5]];portConstraint=eastwest;whiteSpace=wrap;html=1;" parent="DlY94BfLxcScRka0jpxo-17" vertex="1">
          <mxGeometry y="168" width="200" height="132" as="geometry" />
        </mxCell>
        <mxCell id="DlY94BfLxcScRka0jpxo-21" value="Comment" style="swimlane;fontStyle=0;childLayout=stackLayout;horizontal=1;startSize=26;fillColor=none;horizontalStack=0;resizeParent=1;resizeParentMax=0;resizeLast=0;collapsible=1;marginBottom=0;whiteSpace=wrap;html=1;" parent="1" vertex="1">
          <mxGeometry x="754" y="400" width="120" height="180" as="geometry" />
        </mxCell>
        <mxCell id="DlY94BfLxcScRka0jpxo-22" value="&lt;p style=&quot;line-height: 90%;&quot; dir=&quot;ltr&quot;&gt;&lt;span style=&quot;font-size: 11pt; font-family: lt_regular;&quot;&gt;- View Comment&lt;/span&gt;&lt;/p&gt;&lt;p style=&quot;line-height: 90%;&quot; dir=&quot;ltr&quot;&gt;&lt;span style=&quot;font-size: 11pt; font-family: lt_regular;&quot;&gt;- Username&lt;/span&gt;&lt;/p&gt;&lt;p style=&quot;line-height: 90%;&quot; dir=&quot;ltr&quot;&gt;&lt;span style=&quot;font-size: 11pt; font-family: lt_regular;&quot;&gt;- Body&lt;/span&gt;&lt;/p&gt;&lt;p style=&quot;line-height: 90%;&quot; dir=&quot;ltr&quot;&gt;&lt;span style=&quot;font-size: 11pt; font-family: lt_regular;&quot;&gt;- Post&lt;/span&gt;&lt;/p&gt;&lt;p style=&quot;line-height: 90%;&quot; dir=&quot;ltr&quot;&gt;&lt;span style=&quot;font-size: 11pt; font-family: lt_regular;&quot;&gt;- Edit&lt;/span&gt;&lt;/p&gt;&lt;p style=&quot;line-height: 90%;&quot; dir=&quot;ltr&quot;&gt;&lt;span style=&quot;font-size: 11pt; font-family: lt_regular;&quot;&gt;- Delete&amp;nbsp;&lt;/span&gt;&lt;/p&gt;" style="text;strokeColor=none;fillColor=none;align=left;verticalAlign=top;spacingLeft=4;spacingRight=4;overflow=hidden;rotatable=0;points=[[0,0.5],[1,0.5]];portConstraint=eastwest;whiteSpace=wrap;html=1;" parent="DlY94BfLxcScRka0jpxo-21" vertex="1">
          <mxGeometry y="26" width="120" height="154" as="geometry" />
        </mxCell>
        <mxCell id="DlY94BfLxcScRka0jpxo-25" value="Privacy Set" style="swimlane;fontStyle=0;childLayout=stackLayout;horizontal=1;startSize=26;fillColor=none;horizontalStack=0;resizeParent=1;resizeParentMax=0;resizeLast=0;collapsible=1;marginBottom=0;whiteSpace=wrap;html=1;" parent="1" vertex="1">
          <mxGeometry x="480" y="381" width="120" height="130" as="geometry" />
        </mxCell>
        <mxCell id="DlY94BfLxcScRka0jpxo-26" value="&lt;p style=&quot;line-height: 72%;&quot; dir=&quot;ltr&quot;&gt;&lt;span style=&quot;font-size: 11pt; font-family: lt_regular;&quot;&gt;Public&lt;/span&gt;&lt;/p&gt;&lt;p style=&quot;line-height: 72%;&quot; dir=&quot;ltr&quot;&gt;&lt;span style=&quot;font-size: 11pt; font-family: lt_regular;&quot;&gt;Privet&lt;/span&gt;&lt;/p&gt;&lt;p style=&quot;line-height: 72%;&quot; dir=&quot;ltr&quot;&gt;&lt;span style=&quot;font-size: 11pt; font-family: lt_regular;&quot;&gt;Enable Comment&lt;/span&gt;&lt;/p&gt;&lt;p style=&quot;line-height: 72%;&quot; dir=&quot;ltr&quot;&gt;&lt;span style=&quot;font-size: 11pt; font-family: lt_regular;&quot;&gt;Disable Comment&lt;/span&gt;&lt;/p&gt;" style="text;strokeColor=none;fillColor=none;align=left;verticalAlign=top;spacingLeft=4;spacingRight=4;overflow=hidden;rotatable=0;points=[[0,0.5],[1,0.5]];portConstraint=eastwest;whiteSpace=wrap;html=1;" parent="DlY94BfLxcScRka0jpxo-25" vertex="1">
          <mxGeometry y="26" width="120" height="104" as="geometry" />
        </mxCell>
        <mxCell id="DlY94BfLxcScRka0jpxo-29" value="Authorization" style="text;html=1;align=center;verticalAlign=middle;whiteSpace=wrap;rounded=0;" parent="1" vertex="1">
          <mxGeometry x="240" y="160" width="60" height="30" as="geometry" />
        </mxCell>
        <mxCell id="DlY94BfLxcScRka0jpxo-30" value="" style="endArrow=open;endSize=12;dashed=1;html=1;rounded=0;edgeStyle=orthogonalEdgeStyle;exitX=0.992;exitY=0.77;exitDx=0;exitDy=0;exitPerimeter=0;entryX=-0.009;entryY=0.886;entryDx=0;entryDy=0;entryPerimeter=0;" parent="1" target="DlY94BfLxcScRka0jpxo-20" edge="1">
          <mxGeometry width="160" relative="1" as="geometry">
            <mxPoint x="410.00000000000006" y="235.99999999999997" as="sourcePoint" />
            <mxPoint x="620.8" y="347.6" as="targetPoint" />
            <Array as="points">
              <mxPoint x="410" y="340" />
              <mxPoint x="622" y="340" />
              <mxPoint x="622" y="346" />
            </Array>
          </mxGeometry>
        </mxCell>
        <mxCell id="DlY94BfLxcScRka0jpxo-32" value="" style="endArrow=block;endFill=1;html=1;align=left;verticalAlign=top;rounded=0;exitX=0.344;exitY=0.997;exitDx=0;exitDy=0;exitPerimeter=0;entryX=0.75;entryY=0;entryDx=0;entryDy=0;" parent="1" source="LLB44u4CaGhcdVfB1MSI-42" target="DlY94BfLxcScRka0jpxo-13" edge="1">
          <mxGeometry x="-1" relative="1" as="geometry">
            <mxPoint x="480" y="320" as="sourcePoint" />
            <mxPoint x="640" y="320" as="targetPoint" />
          </mxGeometry>
        </mxCell>
        <mxCell id="DlY94BfLxcScRka0jpxo-33" value="1" style="edgeLabel;resizable=0;html=1;align=left;verticalAlign=bottom;" parent="DlY94BfLxcScRka0jpxo-32" connectable="0" vertex="1">
          <mxGeometry x="-1" relative="1" as="geometry">
            <mxPoint x="-14" y="20" as="offset" />
          </mxGeometry>
        </mxCell>
        <mxCell id="DlY94BfLxcScRka0jpxo-34" value="View Blog" style="text;html=1;align=center;verticalAlign=middle;whiteSpace=wrap;rounded=0;" parent="1" vertex="1">
          <mxGeometry x="310" y="260" width="60" height="30" as="geometry" />
        </mxCell>
        <mxCell id="DlY94BfLxcScRka0jpxo-39" value="" style="endArrow=diamondThin;endFill=0;endSize=24;html=1;rounded=0;exitX=0.431;exitY=1.021;exitDx=0;exitDy=0;exitPerimeter=0;edgeStyle=orthogonalEdgeStyle;entryX=0;entryY=0.61;entryDx=0;entryDy=0;entryPerimeter=0;" parent="1" source="DlY94BfLxcScRka0jpxo-10" target="DlY94BfLxcScRka0jpxo-22" edge="1">
          <mxGeometry width="160" relative="1" as="geometry">
            <mxPoint x="120" y="489" as="sourcePoint" />
            <mxPoint x="250" y="550" as="targetPoint" />
            <Array as="points">
              <mxPoint x="127" y="510" />
              <mxPoint x="251" y="510" />
              <mxPoint x="251" y="520" />
            </Array>
          </mxGeometry>
        </mxCell>
        <mxCell id="DlY94BfLxcScRka0jpxo-40" value="0..*" style="text;html=1;align=center;verticalAlign=middle;whiteSpace=wrap;rounded=0;" parent="1" vertex="1">
          <mxGeometry x="80" y="430" width="60" height="30" as="geometry" />
        </mxCell>
        <mxCell id="DlY94BfLxcScRka0jpxo-41" value="0..*" style="text;html=1;align=center;verticalAlign=middle;whiteSpace=wrap;rounded=0;" parent="1" vertex="1">
          <mxGeometry x="700" y="520" width="60" height="30" as="geometry" />
        </mxCell>
        <mxCell id="DlY94BfLxcScRka0jpxo-43" value="1..*" style="text;html=1;align=center;verticalAlign=middle;whiteSpace=wrap;rounded=0;" parent="1" vertex="1">
          <mxGeometry x="172" y="370" width="60" height="30" as="geometry" />
        </mxCell>
        <mxCell id="DlY94BfLxcScRka0jpxo-45" value="0..1" style="text;html=1;align=center;verticalAlign=middle;whiteSpace=wrap;rounded=0;" parent="1" vertex="1">
          <mxGeometry x="232" y="366" width="60" height="30" as="geometry" />
        </mxCell>
        <mxCell id="DlY94BfLxcScRka0jpxo-51" value="" style="endArrow=none;html=1;rounded=0;edgeStyle=elbowEdgeStyle;" parent="1" edge="1">
          <mxGeometry width="50" height="50" relative="1" as="geometry">
            <mxPoint x="470" y="550" as="sourcePoint" />
            <mxPoint x="760" y="330" as="targetPoint" />
          </mxGeometry>
        </mxCell>
        <mxCell id="DlY94BfLxcScRka0jpxo-52" value="" style="endArrow=none;html=1;rounded=0;edgeStyle=elbowEdgeStyle;elbow=vertical;entryX=1;entryY=0;entryDx=0;entryDy=0;" parent="1" target="DlY94BfLxcScRka0jpxo-40" edge="1">
          <mxGeometry width="50" height="50" relative="1" as="geometry">
            <mxPoint x="470" y="550" as="sourcePoint" />
            <mxPoint x="520" y="480" as="targetPoint" />
            <Array as="points">
              <mxPoint x="330" y="500" />
            </Array>
          </mxGeometry>
        </mxCell>
        <mxCell id="DlY94BfLxcScRka0jpxo-53" value="Post Comment" style="text;html=1;align=center;verticalAlign=middle;whiteSpace=wrap;rounded=0;" parent="1" vertex="1">
          <mxGeometry x="490" y="550" width="100" height="30" as="geometry" />
        </mxCell>
        <mxCell id="DlY94BfLxcScRka0jpxo-54" value="0..*" style="text;html=1;align=center;verticalAlign=middle;whiteSpace=wrap;rounded=0;" parent="1" vertex="1">
          <mxGeometry x="130" y="430" width="60" height="30" as="geometry" />
        </mxCell>
        <mxCell id="DlY94BfLxcScRka0jpxo-55" value="Denied" style="text;html=1;align=center;verticalAlign=middle;whiteSpace=wrap;rounded=0;" parent="1" vertex="1">
          <mxGeometry x="200" y="395" width="60" height="30" as="geometry" />
        </mxCell>
        <mxCell id="DlY94BfLxcScRka0jpxo-57" value="0..*" style="text;html=1;align=center;verticalAlign=middle;whiteSpace=wrap;rounded=0;" parent="1" vertex="1">
          <mxGeometry x="710" y="300" width="60" height="30" as="geometry" />
        </mxCell>
        <mxCell id="DlY94BfLxcScRka0jpxo-58" value="" style="endArrow=classic;html=1;rounded=0;entryX=0.031;entryY=0.085;entryDx=0;entryDy=0;entryPerimeter=0;" parent="1" target="DlY94BfLxcScRka0jpxo-14" edge="1">
          <mxGeometry width="50" height="50" relative="1" as="geometry">
            <mxPoint x="190" y="350" as="sourcePoint" />
            <mxPoint x="240" y="300" as="targetPoint" />
          </mxGeometry>
        </mxCell>
        <mxCell id="DlY94BfLxcScRka0jpxo-59" value="view" style="text;html=1;align=center;verticalAlign=middle;whiteSpace=wrap;rounded=0;" parent="1" vertex="1">
          <mxGeometry x="200" y="318" width="60" height="30" as="geometry" />
        </mxCell>
        <mxCell id="DlY94BfLxcScRka0jpxo-60" value="" style="endArrow=open;html=1;rounded=0;align=center;verticalAlign=bottom;dashed=1;endFill=0;labelBackgroundColor=none;exitX=-0.011;exitY=0.267;exitDx=0;exitDy=0;exitPerimeter=0;entryX=1;entryY=0.5;entryDx=0;entryDy=0;" parent="1" source="DlY94BfLxcScRka0jpxo-26" target="DlY94BfLxcScRka0jpxo-14" edge="1">
          <mxGeometry relative="1" as="geometry">
            <mxPoint x="410" y="320" as="sourcePoint" />
            <mxPoint x="570" y="320" as="targetPoint" />
          </mxGeometry>
        </mxCell>
        <mxCell id="DlY94BfLxcScRka0jpxo-61" value="set privacy" style="resizable=0;html=1;align=center;verticalAlign=top;labelBackgroundColor=none;" parent="DlY94BfLxcScRka0jpxo-60" connectable="0" vertex="1">
          <mxGeometry relative="1" as="geometry" />
        </mxCell>
        <mxCell id="DlY94BfLxcScRka0jpxo-62" value="" style="endArrow=open;html=1;rounded=0;align=center;verticalAlign=bottom;dashed=1;endFill=0;labelBackgroundColor=none;exitX=0.083;exitY=1.012;exitDx=0;exitDy=0;exitPerimeter=0;entryX=0.577;entryY=0.006;entryDx=0;entryDy=0;entryPerimeter=0;" parent="1" source="LLB44u4CaGhcdVfB1MSI-52" target="DlY94BfLxcScRka0jpxo-25" edge="1">
          <mxGeometry relative="1" as="geometry">
            <mxPoint x="410" y="320" as="sourcePoint" />
            <mxPoint x="570" y="320" as="targetPoint" />
          </mxGeometry>
        </mxCell>
        <mxCell id="DlY94BfLxcScRka0jpxo-63" value="Privacy Setup" style="resizable=0;html=1;align=center;verticalAlign=top;labelBackgroundColor=none;" parent="DlY94BfLxcScRka0jpxo-62" connectable="0" vertex="1">
          <mxGeometry relative="1" as="geometry">
            <mxPoint x="-3" y="-2" as="offset" />
          </mxGeometry>
        </mxCell>
        <mxCell id="DlY94BfLxcScRka0jpxo-64" value="" style="endArrow=open;endFill=1;endSize=12;html=1;rounded=0;" parent="1" target="DlY94BfLxcScRka0jpxo-22" edge="1">
          <mxGeometry width="160" relative="1" as="geometry">
            <mxPoint x="430" y="230" as="sourcePoint" />
            <mxPoint x="570" y="230" as="targetPoint" />
          </mxGeometry>
        </mxCell>
        <mxCell id="DlY94BfLxcScRka0jpxo-65" value="Comment view" style="text;html=1;align=center;verticalAlign=middle;whiteSpace=wrap;rounded=0;" parent="1" vertex="1">
          <mxGeometry x="432" y="220" width="60" height="30" as="geometry" />
        </mxCell>
        <mxCell id="DlY94BfLxcScRka0jpxo-66" value="" style="endArrow=classic;html=1;rounded=0;entryX=-0.033;entryY=0.44;entryDx=0;entryDy=0;entryPerimeter=0;exitX=1;exitY=0.5;exitDx=0;exitDy=0;" parent="1" source="DlY94BfLxcScRka0jpxo-26" target="DlY94BfLxcScRka0jpxo-22" edge="1">
          <mxGeometry width="50" height="50" relative="1" as="geometry">
            <mxPoint x="470" y="530" as="sourcePoint" />
            <mxPoint x="520" y="480" as="targetPoint" />
          </mxGeometry>
        </mxCell>
        <mxCell id="DlY94BfLxcScRka0jpxo-67" value="Enable/Disable" style="text;html=1;align=center;verticalAlign=middle;whiteSpace=wrap;rounded=0;" parent="1" vertex="1">
          <mxGeometry x="630" y="451" width="70" height="20" as="geometry" />
        </mxCell>
        <mxCell id="DlY94BfLxcScRka0jpxo-69" value="Enable/disable" style="html=1;verticalAlign=bottom;labelBackgroundColor=none;endArrow=open;endFill=0;dashed=1;rounded=0;entryX=0.049;entryY=1.022;entryDx=0;entryDy=0;entryPerimeter=0;exitX=1.002;exitY=0.296;exitDx=0;exitDy=0;exitPerimeter=0;" parent="1" source="DlY94BfLxcScRka0jpxo-26" target="DlY94BfLxcScRka0jpxo-20" edge="1">
          <mxGeometry width="160" relative="1" as="geometry">
            <mxPoint x="410" y="410" as="sourcePoint" />
            <mxPoint x="570" y="410" as="targetPoint" />
          </mxGeometry>
        </mxCell>
        <mxCell id="DlY94BfLxcScRka0jpxo-70" value="&lt;font style=&quot;font-size: 18px;&quot;&gt;Class Diagram&lt;/font&gt;" style="text;html=1;align=center;verticalAlign=middle;whiteSpace=wrap;rounded=0;" parent="1" vertex="1">
          <mxGeometry x="130" y="570" width="130" height="30" as="geometry" />
        </mxCell>
      </root>
    </mxGraphModel>
  </diagram>
</mxfile>
